<svg width="34" height="25" viewBox="0 0 34 25" fill="none" xmlns="http://www.w3.org/2000/svg">
<g clip-path="url(#clip0_323_4494)">
<path d="M29.3634 3.32275H6.95435C6.87708 3.94094 6.87708 4.63639 6.87708 5.25457C6.87708 5.48639 6.87708 5.71821 6.87708 5.95003C6.10435 5.79548 5.0998 5.64094 4.17253 6.18185C3.24526 6.64548 2.70435 7.65003 2.5498 9.04094V9.11821C2.5498 9.19548 2.5498 11.6682 4.40435 13.5228C5.64071 14.6818 7.34071 15.3 9.50435 15.3C9.65889 15.3 9.73617 15.3 9.89071 15.3C10.8953 16.7682 12.1316 17.9273 13.4453 18.7V20.0909H23.0271V18.7C26.8907 16.3046 29.5953 11.2046 29.5953 5.25457C29.4407 4.63639 29.3634 3.94094 29.3634 3.32275ZM5.40889 12.4409C4.17253 11.2046 4.01799 9.50457 4.01799 9.19548C4.09526 8.34548 4.40435 7.80457 4.79071 7.57275C5.4089 7.26366 6.33617 7.41821 6.87708 7.65003C7.18617 9.89094 7.80435 11.9 8.73162 13.6773C7.34071 13.6773 6.25889 13.2137 5.40889 12.4409Z" fill="#7C5039"/>
<path d="M6.25879 21.0955C6.25879 20.5546 6.64515 20.1682 7.18606 20.1682H28.977C29.5179 20.1682 29.9042 20.5546 29.9042 21.0955C29.9042 21.6364 29.5179 22.0228 28.977 22.0228H7.26333C6.72242 22.0228 6.25879 21.6364 6.25879 21.0955Z" fill="white"/>
<path d="M13.3679 18.7773H22.8725L13.3679 20.1683V18.7773Z" fill="#5B3625"/>
<path d="M7.26333 22.023H29.0542C29.5952 22.023 29.9815 21.6366 29.9815 21.0957H6.25879C6.25879 21.6366 6.72242 22.023 7.26333 22.023Z" fill="#7C5039"/>
<path d="M6.8772 3.32285C6.8772 3.32285 7.26356 1.54558 10.7408 1.7774C10.7408 1.7774 13.4454 2.78195 15.9954 1.85467C18.5454 0.9274 21.0181 0.463764 22.8726 1.46831C22.8726 1.46831 24.7272 2.00922 25.8863 1.31376C27.0454 0.61831 27.1226 -0.231689 27.1226 -0.231689C27.1226 -0.231689 27.1226 1.15922 27.8954 1.85467C28.6681 2.55013 29.0545 2.24104 29.2863 3.40013H6.8772V3.32285Z" fill="white"/>
</g>
<defs>
<clipPath id="clip0_323_4494">
<rect width="34" height="24.7273" fill="white"/>
</clipPath>
</defs>
</svg>
