<svg width="32" height="32" viewBox="0 0 32 32" fill="none" xmlns="http://www.w3.org/2000/svg">
<g clip-path="url(#clip0_323_4474)">
<path d="M6.54773 11.624C6.35218 11.624 6.16071 11.5254 6.05038 11.3462C5.69197 10.7654 5.02242 10.0935 4.25363 10.118C3.92674 10.1005 3.66172 9.87399 3.65238 9.55235C3.64246 9.22954 3.8958 8.96044 4.21802 8.95052C5.44796 8.91374 6.49694 9.84597 7.04391 10.7338C7.21319 11.0082 7.12796 11.3678 6.85361 11.5371C6.75846 11.596 6.65222 11.624 6.54773 11.624Z" fill="#436B1C"/>
<path d="M18.4953 3.8508C18.4171 2.71368 17.4721 1.81472 16.3151 1.81472C16.3116 1.81472 16.3087 1.8153 16.3052 1.8153C16.3256 1.6431 16.3139 1.46097 16.2585 1.27126C16.102 0.73772 15.6327 0.327935 15.0805 0.261972C14.6275 0.208268 14.2119 0.370548 13.9206 0.658331C13.6433 0.407907 13.2802 0.251465 12.8774 0.251465C12.0141 0.251465 11.3148 0.951368 11.3148 1.81413C11.3148 1.81705 11.3154 1.81939 11.3154 1.82231C10.2664 1.9017 9.43922 2.77672 9.43922 3.84613C9.43922 4.00958 9.46081 4.16777 9.49701 4.32013C8.24839 4.37208 7.25136 5.39829 7.25136 6.65975C7.25136 7.08705 7.36753 7.48633 7.56716 7.83132C7.18365 8.14654 6.93848 8.62462 6.93848 9.15991C6.93848 9.64908 7.1457 10.0875 7.47377 10.3998C8.88174 9.24922 10.3609 13.0972 12.1028 16.1694C12.6813 17.1898 18.9314 16.1029 19.4293 16.7368C19.9967 16.2267 20.3633 7.34215 20.3791 6.56169C20.4036 5.30957 19.6085 4.24132 18.4953 3.8508Z" fill="#88C057"/>
<path d="M19.2943 15.4883L19.7105 15.239C20.4811 14.7767 21.4431 14.7767 22.213 15.239L22.6292 15.4883C23.3998 15.9506 24.3618 15.9506 25.1317 15.4883L26.3079 14.9653C26.4807 14.4831 26.601 14.134 26.6489 13.9793C27.7463 10.4495 28.4532 6.73278 28.5495 3.02546C28.588 1.53459 27.3552 -0.790448 25.3068 0.26612C23.2935 1.30401 21.8517 5.28453 20.8383 7.17467C19.3988 9.86046 18.2605 12.7815 17.4497 15.758C18.0673 15.9138 18.7316 15.8257 19.2943 15.4883Z" fill="#EEAF4B"/>
<path d="M4.11823 14.8888L4.90336 15.3599C5.80523 15.901 6.93185 15.901 7.83373 15.3599L8.0357 15.2385C8.80624 14.7762 9.76824 14.7762 10.5382 15.2385L10.9544 15.4877C11.4068 15.7592 11.9252 15.8666 12.4318 15.8193C12.8054 14.6127 12.6799 13.1043 12.1009 12.0834C10.1535 8.64806 8.53363 9.34797 6.97505 10.8394C6.67617 11.1255 6.31075 11.335 5.91264 11.4488C4.20345 11.9374 2.94199 12.7366 3.65941 14.9128C3.78608 14.8205 3.96237 14.7954 4.11823 14.8888Z" fill="#ED3F32"/>
<path d="M20.7766 14.2176C20.7147 14.2176 20.6511 14.2076 20.5892 14.1866C20.2839 14.0827 20.1205 13.7512 20.2244 13.4459C20.6137 12.3006 21.8641 11.6876 23.0077 12.0729C23.5441 12.2556 24.1284 11.9673 24.3106 11.4308C24.4139 11.1255 24.7443 10.9609 25.0513 11.0654C25.3566 11.1693 25.5201 11.5008 25.4162 11.8061C25.0274 12.952 23.7782 13.5673 22.6329 13.1791C22.097 12.997 21.5127 13.2859 21.33 13.8212C21.2465 14.0652 21.0194 14.2176 20.7766 14.2176Z" fill="#A46F3E"/>
<path d="M22.157 10.1506C22.0951 10.1506 22.0315 10.1407 21.9696 10.1196C21.6643 10.0157 21.5009 9.68418 21.6048 9.37888C21.7933 8.82374 22.1868 8.37485 22.7121 8.11567C23.2375 7.85649 23.8323 7.81738 24.388 8.00593C24.9257 8.18922 25.5088 7.90027 25.6909 7.36323C25.7943 7.05735 26.1258 6.89332 26.4311 6.99781C26.7364 7.10171 26.8999 7.43328 26.796 7.73857C26.4072 8.88504 25.158 9.49913 24.0127 9.11211C23.7529 9.02338 23.4739 9.04148 23.2281 9.1629C22.9824 9.28431 22.7985 9.49388 22.7098 9.75422C22.6275 9.99764 22.4004 10.1506 22.157 10.1506Z" fill="#A46F3E"/>
<path d="M23.5382 6.08316C23.4763 6.08316 23.4127 6.07324 23.3502 6.05222C23.0449 5.94832 22.8815 5.61675 22.9854 5.31146C23.3263 4.30626 24.4231 3.76688 25.4283 4.10662C25.621 4.172 25.8264 4.15916 26.008 4.06984C26.1895 3.98053 26.3255 3.82526 26.3909 3.63321C26.4942 3.32791 26.8252 3.16388 27.1317 3.26779C27.437 3.37169 27.6004 3.70326 27.4965 4.00855C27.3307 4.49597 26.9857 4.89 26.5246 5.11707C26.0629 5.34473 25.5404 5.378 25.053 5.21281C24.6572 5.07796 24.2252 5.29103 24.091 5.68739C24.0081 5.93022 23.781 6.08316 23.5382 6.08316Z" fill="#A46F3E"/>
<path d="M13.642 8.2277C13.0904 8.96146 12.22 9.83006 12.5551 11.3641L13.4564 15.4882L13.8732 15.239C14.6437 14.7767 15.6057 14.7767 16.3756 15.239L16.7919 15.4882C17.1304 15.6914 17.4497 15.7585 17.4497 15.7585C18.058 13.5269 18.8501 11.3262 19.815 9.23289C19.3632 8.10278 18.3983 7.72451 17.6978 7.33749C17.6937 7.33516 17.6896 7.33282 17.6861 7.33107C17.2431 7.07715 17.2156 6.47064 17.549 6.08421C17.6803 5.93185 17.741 5.72229 17.6955 5.51214L17.6248 5.18992C17.5472 4.835 17.1935 4.60851 16.8391 4.68615L13.2918 5.46019C12.9368 5.53783 12.7103 5.89157 12.788 6.2459L12.8586 6.56813C12.9053 6.78294 13.0536 6.94931 13.2416 7.03045C13.6729 7.21666 13.9362 7.69824 13.7155 8.11328C13.6945 8.15239 13.67 8.19034 13.642 8.2277Z" fill="#DAE7EF"/>
<path d="M17.3641 6.36217L13.3485 7.23953C12.9055 7.33643 12.463 7.05273 12.3661 6.60967L12.3083 6.34582C12.2114 5.90276 12.4951 5.46029 12.9381 5.36339L16.9537 4.48603C17.3967 4.38913 17.8392 4.67282 17.9361 5.11588L17.9939 5.37973C18.0908 5.82337 17.8071 6.26527 17.3641 6.36217Z" fill="white"/>
<path d="M27.3284 14.7872L26.3098 29.3976C26.235 30.8564 25.0308 32.0005 23.5703 32.0005H7.18412C5.72361 32.0005 4.51935 30.8564 4.44463 29.3976L3.45053 15.2664C3.4336 14.9343 3.79377 14.7177 4.07921 14.8888L4.86434 15.3598C5.76622 15.901 6.89284 15.901 7.79471 15.3598L7.99669 15.2384C8.76722 14.7761 9.72923 14.7761 10.4992 15.2384L10.9154 15.4883C11.6859 15.9506 12.6479 15.9506 13.4179 15.4883L13.8341 15.2384C14.6046 14.7761 15.5666 14.7761 16.3366 15.2384L16.7528 15.4883C17.5233 15.9506 18.4853 15.9506 19.2553 15.4883L19.6715 15.2384C20.442 14.7761 21.404 14.7761 22.174 15.2384L22.5902 15.4883C23.3607 15.9506 24.3227 15.9506 25.0927 15.4883L27.0698 14.6097C27.1953 14.5537 27.3354 14.65 27.3284 14.7872Z" fill="#FBD490"/>
<path d="M10.4548 24.5171H6.36865C6.04643 24.5171 5.78491 24.2562 5.78491 23.9333C5.78491 23.6105 6.04643 23.3496 6.36865 23.3496H10.4548C10.7771 23.3496 11.0386 23.6105 11.0386 23.9333C11.0386 24.2562 10.7771 24.5171 10.4548 24.5171Z" fill="#E0B877"/>
<path d="M11.6223 26.852H6.36865C6.04643 26.852 5.78491 26.5911 5.78491 26.2683C5.78491 25.9455 6.04643 25.6846 6.36865 25.6846H11.6223C11.9445 25.6846 12.206 25.9455 12.206 26.2683C12.206 26.5911 11.9445 26.852 11.6223 26.852Z" fill="#E0B877"/>
<path d="M12.7898 29.187H6.36865C6.04643 29.187 5.78491 28.9261 5.78491 28.6033C5.78491 28.2805 6.04643 28.0195 6.36865 28.0195H12.7898C13.112 28.0195 13.3735 28.2805 13.3735 28.6033C13.3735 28.9261 13.112 29.187 12.7898 29.187Z" fill="#E0B877"/>
<path d="M16.2922 29.187H15.1248C14.8025 29.187 14.541 28.9261 14.541 28.6033C14.541 28.2805 14.8025 28.0195 15.1248 28.0195H16.2922C16.6145 28.0195 16.876 28.2805 16.876 28.6033C16.876 28.9261 16.6145 29.187 16.2922 29.187Z" fill="#E0B877"/>
</g>
<defs>
<clipPath id="clip0_323_4474">
<rect width="32" height="32" fill="white"/>
</clipPath>
</defs>
</svg>
