<svg width="25" height="25" viewBox="0 0 25 25" fill="none" xmlns="http://www.w3.org/2000/svg">
<g clip-path="url(#clip0_323_4746)">
<path d="M12.916 13.3478L23.8613 7.63877C23.8613 7.63877 23.8652 7.49424 23.8613 7.39267L11.6914 2.11533C11.6669 2.1047 11.6403 2.0997 11.6136 2.10071C11.5869 2.10173 11.5608 2.10873 11.5371 2.12119L0.955078 7.71885C0.914062 7.74033 0.890625 7.78135 0.890625 7.82627V18.1681C0.890625 18.2892 0.958984 18.4005 1.06445 18.4552L1.39258 18.6251C1.68945 18.7774 12.3203 24.3419 12.6719 24.2149C12.7754 24.1778 12.8535 24.1075 12.916 24.0235V13.3478Z" fill="#439F2D"/>
<path d="M12.6367 13.1485C13.9356 12.5216 23.877 7.72276 23.8613 7.39268L11.6836 2.11143C11.6612 2.10177 11.637 2.09727 11.6126 2.09828C11.5883 2.0993 11.5645 2.1058 11.543 2.11729L0.951179 7.72081C0.925788 7.73448 0.925788 7.77159 0.953132 7.78331L12.3555 13.1485C12.4453 13.1896 12.5469 13.1896 12.6367 13.1485Z" fill="#45B22B"/>
<path d="M23.9687 18.4393L12.8828 24.1542C12.707 24.244 12.5 24.1171 12.5 23.9198V13.4628C12.5 13.2147 12.666 13.1249 12.7539 13.08L23.7266 7.42176C23.9023 7.33192 24.1094 7.39247 24.1094 7.65614V18.2069C24.1113 18.3046 24.0566 18.3944 23.9687 18.4393Z" fill="#317E1F"/>
<path d="M14.627 9.00391L8.32812 5.85742L9.50976 5.26953L15.8086 8.41602L14.627 9.00391Z" fill="#292D32"/>
<path d="M15.2793 8.15224L10.6289 5.82802C10.6289 5.82802 11.6719 4.86123 14.0273 3.61513C14.1152 3.56826 14.5488 3.31631 14.6426 3.36513L20.1641 5.76748C17.918 6.05263 15.2793 8.15224 15.2793 8.15224Z" fill="#348121"/>
<path d="M9.50976 5.62109L15.4551 8.58984L15.8086 8.41602L9.50976 5.26953L8.32812 5.85742L8.67969 6.0332L9.50976 5.62109Z" fill="#0D47A1"/>
<path d="M19.3281 3.50392C17.0527 4.8926 14.1465 8.76369 14.1465 8.76369L9.30273 6.34377C9.30273 6.34377 11.8711 2.13673 14.873 0.810563C14.9629 0.7715 15.0703 0.767594 15.1641 0.818375L19.3008 3.00588C19.5117 3.1172 19.5195 3.38674 19.3281 3.50392Z" fill="#DFECF5"/>
<path opacity="0.7" d="M12.4961 14.6211L0.888672 9.16016V9.58789L12.4961 15.0488L12.5801 15.0098L12.4961 14.6211Z" fill="#215914"/>
<path d="M12.5 14.6191V15.0469L24.1113 9.08984V8.6543L12.5 14.6191Z" fill="#215914"/>
<path d="M7.66406 9.40039C7.66406 8.7207 8.06836 8.5918 8.56836 8.5918C9.06836 8.5918 9.47266 8.75 9.47266 9.40039C9.47266 9.70117 9.06836 9.94336 8.56836 9.94336C8.06836 9.94336 7.66406 9.70117 7.66406 9.40039Z" fill="#616161"/>
<path d="M8.56836 9.6543C9.04514 9.6543 9.43164 9.4112 9.43164 9.11133C9.43164 8.81146 9.04514 8.56836 8.56836 8.56836C8.09158 8.56836 7.70508 8.81146 7.70508 9.11133C7.70508 9.4112 8.09158 9.6543 8.56836 9.6543Z" fill="#E0E0E0"/>
</g>
<defs>
<clipPath id="clip0_323_4746">
<rect width="25" height="25" fill="white"/>
</clipPath>
</defs>
</svg>
