<svg width="30" height="30" viewBox="0 0 30 30" fill="none" xmlns="http://www.w3.org/2000/svg">
<path d="M11.2791 11.5457L18.3917 18.6591L11.5695 25.4813C10.587 26.4629 9.3002 26.9546 8.01335 26.9546C6.7265 26.9546 5.43965 26.4629 4.45715 25.4813C2.49215 23.5172 2.49215 20.3319 4.45715 18.3678L11.2791 11.5457Z" fill="#5FCEFF"/>
<path d="M24.8101 5.12695C26.5156 6.83245 26.5156 9.60745 24.8101 11.3129L18.3916 17.7314L12.2056 11.5454L18.6241 5.12695C19.4491 4.30045 20.5486 3.84595 21.7171 3.84595C22.8856 3.84595 23.9836 4.30045 24.8101 5.12695ZM23.2351 6.37795C23.3521 6.03595 23.1691 5.66245 22.8271 5.54545C22.0828 5.28995 21.2786 5.26538 20.5201 5.47495C20.3815 5.51282 20.2592 5.5951 20.172 5.70918C20.0847 5.82326 20.0373 5.96283 20.0371 6.10645C20.0371 6.16345 20.0446 6.22195 20.0611 6.28045C20.1556 6.62995 20.5171 6.83545 20.8666 6.73945C21.3751 6.59995 21.9061 6.61645 22.4011 6.78595C22.4716 6.80995 22.5436 6.82195 22.6141 6.82195C22.8946 6.82195 23.1436 6.64345 23.2351 6.37795ZM18.7921 8.33545C18.853 8.27464 18.9014 8.2024 18.9344 8.12286C18.9674 8.04333 18.9844 7.95806 18.9844 7.87195C18.9844 7.78583 18.9674 7.70057 18.9344 7.62103C18.9014 7.5415 18.853 7.46926 18.7921 7.40845C18.5371 7.15345 18.1216 7.15345 17.8651 7.40845L15.1081 10.1654C15.0164 10.2572 14.954 10.3741 14.9287 10.5014C14.9034 10.6286 14.9163 10.7605 14.9659 10.8804C15.0155 11.0002 15.0995 11.1027 15.2073 11.1749C15.3151 11.2471 15.4418 11.2857 15.5716 11.2859C15.7456 11.2859 15.9121 11.2169 16.0351 11.0939L18.7921 8.33545Z" fill="white"/>
<path d="M25.7369 4.19991C27.9539 6.41691 27.9539 10.0244 25.7369 12.2399L12.0329 25.9454C10.9574 27.0179 9.53088 27.6104 8.01288 27.6104C6.49638 27.6104 5.06838 27.0194 3.99288 25.9454C2.91888 24.8714 2.32788 23.4434 2.32788 21.9239C2.32788 20.4059 2.91888 18.9779 3.99288 17.9039L17.6969 4.19991C18.7694 3.12591 20.1974 2.53491 21.7169 2.53491C23.2364 2.53491 24.6629 3.12591 25.7369 4.19991ZM24.8099 11.3129C26.5154 9.60741 26.5154 6.83241 24.8099 5.12691C23.9834 4.30041 22.8854 3.84591 21.7169 3.84591C20.5484 3.84591 19.4489 4.30041 18.6239 5.12691L12.2054 11.5454L18.3914 17.7314L24.8099 11.3129ZM11.1059 25.0169L17.4644 18.6584L11.2784 12.4724L4.91988 18.8309C4.09338 19.6574 3.63888 20.7554 3.63888 21.9239C3.63888 23.0924 4.09338 24.1919 4.91988 25.0169C5.74788 25.8434 6.84588 26.2994 8.01288 26.2994C9.17988 26.2994 10.2794 25.8434 11.1059 25.0169Z" fill="#4F46A3"/>
<path d="M22.827 5.54547C23.169 5.66247 23.352 6.03597 23.235 6.37797C23.1906 6.50742 23.1069 6.61979 22.9956 6.69939C22.8843 6.77898 22.7509 6.82184 22.614 6.82197C22.5435 6.82197 22.4715 6.80997 22.401 6.78597C21.906 6.61647 21.375 6.59997 20.8665 6.73947C20.517 6.83547 20.1555 6.62997 20.061 6.28047C20.0445 6.22197 20.037 6.16347 20.037 6.10647C20.037 5.81847 20.229 5.55447 20.52 5.47497C21.2835 5.26497 22.08 5.29047 22.827 5.54547ZM18.792 7.40847C18.853 7.46927 18.9014 7.54152 18.9344 7.62105C18.9674 7.70059 18.9844 7.78585 18.9844 7.87197C18.9844 7.95808 18.9674 8.04335 18.9344 8.12288C18.9014 8.20242 18.853 8.27466 18.792 8.33547L16.035 11.094C15.912 11.217 15.7455 11.286 15.5715 11.286C15.4418 11.2858 15.315 11.2471 15.2072 11.1749C15.0994 11.1028 15.0155 11.0003 14.9659 10.8804C14.9163 10.7605 14.9033 10.6286 14.9286 10.5014C14.9539 10.3741 15.0163 10.2573 15.108 10.1655L17.865 7.40847C18.1215 7.15347 18.537 7.15347 18.792 7.40847Z" fill="#4F46A3"/>
</svg>
