<svg width="18" height="10" viewBox="0 0 18 10" fill="none" xmlns="http://www.w3.org/2000/svg">
<path d="M2.25 7.89894H15.75C16.1625 7.89894 16.5 8.23644 16.5 8.64894C16.5 9.06144 16.1625 9.39894 15.75 9.39894H2.25C1.8375 9.39894 1.5 9.06144 1.5 8.64894C1.5 8.23644 1.8375 7.89894 2.25 7.89894ZM1.875 4.57644C2.145 4.73394 2.49 4.63644 2.6475 4.36644L3 3.75144L3.36 4.37394C3.5175 4.64394 3.8625 4.73394 4.1325 4.58394C4.4025 4.42644 4.4925 4.08894 4.3425 3.81894L3.975 3.18894H4.6875C4.995 3.18894 5.25 2.93394 5.25 2.62644C5.25 2.31894 4.995 2.06394 4.6875 2.06394H3.975L4.3275 1.44894C4.485 1.17894 4.395 0.83394 4.125 0.67644C3.855 0.52644 3.51 0.61644 3.3525 0.88644L3 1.50144L2.6475 0.88644C2.49 0.61644 2.145 0.52644 1.875 0.67644C1.605 0.83394 1.515 1.17894 1.6725 1.44894L2.025 2.06394H1.3125C1.005 2.06394 0.75 2.31894 0.75 2.62644C0.75 2.93394 1.005 3.18894 1.3125 3.18894H2.025L1.665 3.81144C1.515 4.08144 1.605 4.42644 1.875 4.57644ZM7.875 4.57644C8.145 4.73394 8.49 4.63644 8.6475 4.36644L9 3.75144L9.36 4.37394C9.5175 4.64394 9.8625 4.73394 10.1325 4.58394C10.4025 4.42644 10.4925 4.08894 10.3425 3.81894L9.9825 3.19644H10.695C11.0025 3.19644 11.2575 2.94144 11.2575 2.63394C11.2575 2.32644 11.0025 2.07144 10.695 2.07144H9.975L10.3275 1.45644C10.485 1.18644 10.3875 0.84144 10.125 0.68394C9.855 0.52644 9.51 0.62394 9.36 0.88644L9 1.50144L8.6475 0.88644C8.49 0.61644 8.145 0.52644 7.8825 0.68394C7.6125 0.84144 7.5225 1.18644 7.68 1.45644L8.0325 2.07144H7.3125C7.005 2.06394 6.75 2.31894 6.75 2.62644C6.75 2.93394 7.005 3.18894 7.3125 3.18894H8.025L7.665 3.81144C7.515 4.08144 7.605 4.42644 7.875 4.57644ZM17.25 2.62644C17.25 2.31894 16.995 2.06394 16.6875 2.06394H15.975L16.3275 1.44894C16.485 1.17894 16.3875 0.83394 16.125 0.67644C15.855 0.51894 15.51 0.61644 15.36 0.87894L15 1.50144L14.6475 0.88644C14.49 0.61644 14.145 0.52644 13.8825 0.68394C13.6125 0.84144 13.5225 1.18644 13.68 1.45644L14.0325 2.07144H13.32C13.005 2.06394 12.75 2.31894 12.75 2.62644C12.75 2.93394 13.005 3.18894 13.3125 3.18894H14.025L13.665 3.81144C13.5075 4.08144 13.605 4.42644 13.875 4.57644C14.145 4.73394 14.49 4.63644 14.6475 4.36644L15 3.75144L15.36 4.37394C15.5175 4.64394 15.8625 4.73394 16.1325 4.58394C16.4025 4.42644 16.4925 4.08894 16.3425 3.81894L15.9825 3.19644H16.695C16.995 3.18894 17.25 2.93394 17.25 2.62644Z" fill="#94A3B8"/>
</svg>
