<svg width="20" height="21" viewBox="0 0 20 21" fill="none" xmlns="http://www.w3.org/2000/svg">
<path d="M0.5 8.05066C0.5 6.15091 0.501062 4.77639 0.641988 3.7282C0.78098 2.69438 1.04772 2.05319 1.52513 1.57579C2.00253 1.09838 2.64373 0.83164 3.67754 0.692647C4.72573 0.551721 6.10025 0.550659 8 0.550659H12C13.8998 0.550659 15.2743 0.551721 16.3225 0.692647C17.3563 0.83164 17.9975 1.09838 18.4749 1.57579C18.9523 2.05319 19.219 2.69438 19.358 3.7282C19.4989 4.77639 19.5 6.15091 19.5 8.05066V12.0507C19.5 13.9504 19.4989 15.3249 19.358 16.3731C19.219 17.4069 18.9523 18.0481 18.4749 18.5255C17.9975 19.0029 17.3563 19.2697 16.3225 19.4087C15.2743 19.5496 13.8998 19.5507 12 19.5507H8C6.10025 19.5507 4.72573 19.5496 3.67754 19.4087C2.64372 19.2697 2.00253 19.0029 1.52513 18.5255C1.04772 18.0481 0.78098 17.4069 0.641988 16.3731C0.501062 15.3249 0.5 13.9504 0.5 12.0507V8.05066Z" stroke="#94A3B8"/>
<path d="M10 5.60645L10 14.4953" stroke="#94A3B8" stroke-linejoin="round"/>
<path d="M14.4443 10.0507L5.55545 10.0507" stroke="#94A3B8" stroke-linejoin="round"/>
</svg>
