<svg width="20" height="20" viewBox="0 0 20 20" fill="none" xmlns="http://www.w3.org/2000/svg">
<path d="M13.4916 1.66675H6.50829C3.47496 1.66675 1.66663 3.47508 1.66663 6.50841V13.4834C1.66663 16.5251 3.47496 18.3334 6.50829 18.3334H13.4833C16.5166 18.3334 18.325 16.5251 18.325 13.4917V6.50841C18.3333 3.47508 16.525 1.66675 13.4916 1.66675ZM13.3833 9.30841L10.4416 12.2501C10.3166 12.3751 10.1583 12.4334 9.99996 12.4334C9.84163 12.4334 9.68329 12.3751 9.55829 12.2501L6.61663 9.30841C6.37496 9.06675 6.37496 8.66675 6.61663 8.42508C6.85829 8.18341 7.25829 8.18341 7.49996 8.42508L9.99996 10.9251L12.5 8.42508C12.7416 8.18341 13.1416 8.18341 13.3833 8.42508C13.625 8.66675 13.625 9.05841 13.3833 9.30841Z" fill="#45B22B"/>
</svg>
