<svg width="19" height="19" viewBox="0 0 19 19" fill="none" xmlns="http://www.w3.org/2000/svg">
<path d="M13.5875 17.5625C12.74 17.5625 11.8475 17.36 10.925 16.97C10.025 16.5875 9.1175 16.0625 8.2325 15.425C7.355 14.78 6.5075 14.06 5.705 13.2725C4.91 12.47 4.19 11.6225 3.5525 10.7525C2.9075 9.8525 2.39 8.9525 2.0225 8.0825C1.6325 7.1525 1.4375 6.2525 1.4375 5.405C1.4375 4.82 1.5425 4.265 1.745 3.7475C1.955 3.215 2.2925 2.72 2.75 2.2925C3.3275 1.7225 3.9875 1.4375 4.6925 1.4375C4.985 1.4375 5.285 1.505 5.54 1.625C5.8325 1.76 6.08 1.9625 6.26 2.2325L8 4.685C8.1575 4.9025 8.2775 5.1125 8.36 5.3225C8.4575 5.5475 8.51 5.7725 8.51 5.99C8.51 6.275 8.4275 6.5525 8.27 6.815C8.1575 7.0175 7.985 7.235 7.7675 7.4525L7.2575 7.985C7.265 8.0075 7.2725 8.0225 7.28 8.0375C7.37 8.195 7.55 8.465 7.895 8.87C8.2625 9.29 8.6075 9.6725 8.9525 10.025C9.395 10.46 9.7625 10.805 10.1075 11.09C10.535 11.45 10.8125 11.63 10.9775 11.7125L10.9625 11.75L11.51 11.21C11.7425 10.9775 11.9675 10.805 12.185 10.6925C12.5975 10.4375 13.1225 10.3925 13.6475 10.61C13.8425 10.6925 14.0525 10.805 14.2775 10.9625L16.7675 12.7325C17.045 12.92 17.2475 13.16 17.3675 13.445C17.48 13.73 17.5325 13.9925 17.5325 14.255C17.5325 14.615 17.45 14.975 17.2925 15.3125C17.135 15.65 16.94 15.9425 16.6925 16.2125C16.265 16.685 15.8 17.0225 15.26 17.24C14.7425 17.45 14.18 17.5625 13.5875 17.5625ZM4.6925 2.5625C4.28 2.5625 3.8975 2.7425 3.53 3.1025C3.185 3.425 2.945 3.7775 2.795 4.16C2.6375 4.55 2.5625 4.9625 2.5625 5.405C2.5625 6.1025 2.7275 6.86 3.0575 7.64C3.395 8.435 3.8675 9.26 4.4675 10.085C5.0675 10.91 5.75 11.7125 6.5 12.47C7.25 13.2125 8.06 13.9025 8.8925 14.51C9.7025 15.1025 10.535 15.5825 11.36 15.9275C12.6425 16.475 13.8425 16.6025 14.8325 16.19C15.215 16.0325 15.5525 15.7925 15.86 15.4475C16.0325 15.26 16.1675 15.0575 16.28 14.8175C16.37 14.63 16.415 14.435 16.415 14.24C16.415 14.12 16.3925 14 16.3325 13.865C16.31 13.82 16.265 13.7375 16.1225 13.64L13.6325 11.87C13.4825 11.765 13.3475 11.69 13.22 11.6375C13.055 11.57 12.9875 11.5025 12.7325 11.66C12.5825 11.735 12.4475 11.8475 12.2975 11.9975L11.7275 12.56C11.435 12.845 10.985 12.9125 10.64 12.785L10.4375 12.695C10.13 12.53 9.77 12.275 9.3725 11.9375C9.0125 11.63 8.6225 11.27 8.15 10.805C7.7825 10.43 7.415 10.0325 7.0325 9.59C6.68 9.1775 6.425 8.825 6.2675 8.5325L6.1775 8.3075C6.1325 8.135 6.1175 8.0375 6.1175 7.9325C6.1175 7.6625 6.215 7.4225 6.4025 7.235L6.965 6.65C7.115 6.5 7.2275 6.3575 7.3025 6.23C7.3625 6.1325 7.385 6.05 7.385 5.975C7.385 5.915 7.3625 5.825 7.325 5.735C7.2725 5.615 7.19 5.48 7.085 5.3375L5.345 2.8775C5.27 2.7725 5.18 2.6975 5.0675 2.645C4.9475 2.5925 4.82 2.5625 4.6925 2.5625ZM10.9625 11.7575L10.8425 12.2675L11.045 11.7425C11.0075 11.735 10.9775 11.7425 10.9625 11.7575Z" fill="white"/>
<path d="M14.375 7.8125C14.0675 7.8125 13.8125 7.5575 13.8125 7.25C13.8125 6.98 13.5425 6.4175 13.0925 5.9375C12.65 5.465 12.1625 5.1875 11.75 5.1875C11.4425 5.1875 11.1875 4.9325 11.1875 4.625C11.1875 4.3175 11.4425 4.0625 11.75 4.0625C12.4775 4.0625 13.2425 4.4525 13.91 5.165C14.5325 5.8325 14.9375 6.65 14.9375 7.25C14.9375 7.5575 14.6825 7.8125 14.375 7.8125Z" fill="white"/>
<path d="M17 7.8125C16.6925 7.8125 16.4375 7.5575 16.4375 7.25C16.4375 4.6625 14.3375 2.5625 11.75 2.5625C11.4425 2.5625 11.1875 2.3075 11.1875 2C11.1875 1.6925 11.4425 1.4375 11.75 1.4375C14.9525 1.4375 17.5625 4.0475 17.5625 7.25C17.5625 7.5575 17.3075 7.8125 17 7.8125Z" fill="white"/>
</svg>
