<svg width="20" height="21" viewBox="0 0 20 21" fill="none" xmlns="http://www.w3.org/2000/svg">
<path d="M14.5416 19.4584C13.6 19.4584 12.6083 19.2334 11.5833 18.8001C10.5833 18.3751 9.57496 17.7917 8.59163 17.0834C7.61663 16.3667 6.67496 15.5667 5.78329 14.6917C4.89996 13.8001 4.09996 12.8584 3.39163 11.8917C2.67496 10.8917 2.09996 9.89175 1.69163 8.92508C1.25829 7.89175 1.04163 6.89175 1.04163 5.95008C1.04163 5.30008 1.15829 4.68341 1.38329 4.10841C1.61663 3.51675 1.99163 2.96675 2.49996 2.49175C3.14163 1.85841 3.87496 1.54175 4.65829 1.54175C4.98329 1.54175 5.31663 1.61675 5.59996 1.75008C5.92496 1.90008 6.19996 2.12508 6.39996 2.42508L8.33329 5.15008C8.50829 5.39175 8.64163 5.62508 8.73329 5.85841C8.84163 6.10841 8.89996 6.35842 8.89996 6.60008C8.89996 6.91675 8.80829 7.22508 8.63329 7.51675C8.50829 7.74175 8.31663 7.98342 8.07496 8.22508L7.50829 8.81675C7.51663 8.84175 7.52496 8.85842 7.53329 8.87508C7.63329 9.05008 7.83329 9.35008 8.21663 9.80008C8.62496 10.2667 9.00829 10.6917 9.39163 11.0834C9.88329 11.5667 10.2916 11.9501 10.675 12.2667C11.15 12.6667 11.4583 12.8667 11.6416 12.9584L11.625 13.0001L12.2333 12.4001C12.4916 12.1417 12.7416 11.9501 12.9833 11.8251C13.4416 11.5417 14.025 11.4917 14.6083 11.7334C14.825 11.8251 15.0583 11.9501 15.3083 12.1251L18.075 14.0917C18.3833 14.3001 18.6083 14.5667 18.7416 14.8834C18.8666 15.2001 18.925 15.4917 18.925 15.7834C18.925 16.1834 18.8333 16.5834 18.6583 16.9584C18.4833 17.3334 18.2666 17.6584 17.9916 17.9584C17.5166 18.4834 17 18.8584 16.4 19.1001C15.825 19.3334 15.2 19.4584 14.5416 19.4584ZM4.65829 2.79175C4.19996 2.79175 3.77496 2.99175 3.36663 3.39175C2.98329 3.75008 2.71663 4.14175 2.54996 4.56675C2.37496 5.00008 2.29163 5.45841 2.29163 5.95008C2.29163 6.72508 2.47496 7.56675 2.84163 8.43342C3.21663 9.31675 3.74163 10.2334 4.40829 11.1501C5.07496 12.0667 5.83329 12.9584 6.66663 13.8001C7.49996 14.6251 8.39996 15.3917 9.32496 16.0667C10.225 16.7251 11.15 17.2584 12.0666 17.6417C13.4916 18.2501 14.825 18.3917 15.925 17.9334C16.35 17.7584 16.725 17.4917 17.0666 17.1084C17.2583 16.9001 17.4083 16.6751 17.5333 16.4084C17.6333 16.2001 17.6833 15.9834 17.6833 15.7667C17.6833 15.6334 17.6583 15.5001 17.5916 15.3501C17.5666 15.3001 17.5166 15.2084 17.3583 15.1001L14.5916 13.1334C14.425 13.0167 14.275 12.9334 14.1333 12.8751C13.95 12.8001 13.875 12.7251 13.5916 12.9001C13.425 12.9834 13.275 13.1084 13.1083 13.2751L12.475 13.9001C12.15 14.2167 11.65 14.2917 11.2666 14.1501L11.0416 14.0501C10.7 13.8667 10.3 13.5834 9.85829 13.2084C9.45829 12.8667 9.02496 12.4667 8.49996 11.9501C8.09163 11.5334 7.68329 11.0917 7.25829 10.6001C6.86663 10.1417 6.58329 9.75008 6.40829 9.42508L6.30829 9.17508C6.25829 8.98342 6.24163 8.87508 6.24163 8.75841C6.24163 8.45842 6.34996 8.19175 6.55829 7.98341L7.18329 7.33342C7.34996 7.16675 7.47496 7.00841 7.55829 6.86675C7.62496 6.75841 7.64996 6.66675 7.64996 6.58342C7.64996 6.51675 7.62496 6.41675 7.58329 6.31675C7.52496 6.18341 7.43329 6.03341 7.31663 5.87508L5.38329 3.14175C5.29996 3.02508 5.19996 2.94175 5.07496 2.88341C4.94163 2.82508 4.79996 2.79175 4.65829 2.79175ZM11.625 13.0084L11.4916 13.5751L11.7166 12.9917C11.675 12.9834 11.6416 12.9917 11.625 13.0084Z" fill="#45B22B"/>
<path d="M15.4167 8.62492C15.075 8.62492 14.7917 8.34159 14.7917 7.99992C14.7917 7.69992 14.4917 7.07492 13.9917 6.54159C13.5 6.01659 12.9583 5.70825 12.5 5.70825C12.1583 5.70825 11.875 5.42492 11.875 5.08325C11.875 4.74159 12.1583 4.45825 12.5 4.45825C13.3083 4.45825 14.1583 4.89159 14.9 5.68325C15.5917 6.42492 16.0417 7.33325 16.0417 7.99992C16.0417 8.34159 15.7583 8.62492 15.4167 8.62492Z" fill="#45B22B"/>
<path d="M18.3333 8.62508C17.9917 8.62508 17.7083 8.34175 17.7083 8.00008C17.7083 5.12508 15.375 2.79175 12.5 2.79175C12.1583 2.79175 11.875 2.50841 11.875 2.16675C11.875 1.82508 12.1583 1.54175 12.5 1.54175C16.0583 1.54175 18.9583 4.44175 18.9583 8.00008C18.9583 8.34175 18.675 8.62508 18.3333 8.62508Z" fill="#45B22B"/>
</svg>
