<svg width="20" height="21" viewBox="0 0 20 21" fill="none" xmlns="http://www.w3.org/2000/svg">
<path d="M5.83341 9.00895H4.16675C2.15008 9.00895 1.04175 7.90062 1.04175 5.88395V4.21729C1.04175 2.20062 2.15008 1.09229 4.16675 1.09229H5.83341C7.85008 1.09229 8.95841 2.20062 8.95841 4.21729V5.88395C8.95841 7.90062 7.85008 9.00895 5.83341 9.00895ZM4.16675 2.34229C2.85008 2.34229 2.29175 2.90062 2.29175 4.21729V5.88395C2.29175 7.20062 2.85008 7.75895 4.16675 7.75895H5.83341C7.15008 7.75895 7.70841 7.20062 7.70841 5.88395V4.21729C7.70841 2.90062 7.15008 2.34229 5.83341 2.34229H4.16675Z" fill="#94A3B8"/>
<path d="M15.8334 9.00895H14.1667C12.1501 9.00895 11.0417 7.90062 11.0417 5.88395V4.21729C11.0417 2.20062 12.1501 1.09229 14.1667 1.09229H15.8334C17.8501 1.09229 18.9584 2.20062 18.9584 4.21729V5.88395C18.9584 7.90062 17.8501 9.00895 15.8334 9.00895ZM14.1667 2.34229C12.8501 2.34229 12.2917 2.90062 12.2917 4.21729V5.88395C12.2917 7.20062 12.8501 7.75895 14.1667 7.75895H15.8334C17.1501 7.75895 17.7084 7.20062 17.7084 5.88395V4.21729C17.7084 2.90062 17.1501 2.34229 15.8334 2.34229H14.1667Z" fill="#94A3B8"/>
<path d="M15.8334 19.009H14.1667C12.1501 19.009 11.0417 17.9006 11.0417 15.884V14.2173C11.0417 12.2006 12.1501 11.0923 14.1667 11.0923H15.8334C17.8501 11.0923 18.9584 12.2006 18.9584 14.2173V15.884C18.9584 17.9006 17.8501 19.009 15.8334 19.009ZM14.1667 12.3423C12.8501 12.3423 12.2917 12.9006 12.2917 14.2173V15.884C12.2917 17.2006 12.8501 17.759 14.1667 17.759H15.8334C17.1501 17.759 17.7084 17.2006 17.7084 15.884V14.2173C17.7084 12.9006 17.1501 12.3423 15.8334 12.3423H14.1667Z" fill="#94A3B8"/>
<path d="M5.83341 19.009H4.16675C2.15008 19.009 1.04175 17.9006 1.04175 15.884V14.2173C1.04175 12.2006 2.15008 11.0923 4.16675 11.0923H5.83341C7.85008 11.0923 8.95841 12.2006 8.95841 14.2173V15.884C8.95841 17.9006 7.85008 19.009 5.83341 19.009ZM4.16675 12.3423C2.85008 12.3423 2.29175 12.9006 2.29175 14.2173V15.884C2.29175 17.2006 2.85008 17.759 4.16675 17.759H5.83341C7.15008 17.759 7.70841 17.2006 7.70841 15.884V14.2173C7.70841 12.9006 7.15008 12.3423 5.83341 12.3423H4.16675Z" fill="#94A3B8"/>
</svg>
