<svg width="20" height="20" viewBox="0 0 20 20" fill="none" xmlns="http://www.w3.org/2000/svg">
<path d="M13.4917 1.66675H6.50841C3.47508 1.66675 1.66675 3.47508 1.66675 6.50841V13.4834C1.66675 16.5251 3.47508 18.3334 6.50841 18.3334H13.4834C16.5167 18.3334 18.3251 16.5251 18.3251 13.4917V6.50841C18.3334 3.47508 16.5251 1.66675 13.4917 1.66675ZM13.3834 9.30841L10.4417 12.2501C10.3167 12.3751 10.1584 12.4334 10.0001 12.4334C9.84175 12.4334 9.68341 12.3751 9.55841 12.2501L6.61675 9.30841C6.37508 9.06675 6.37508 8.66675 6.61675 8.42508C6.85841 8.18341 7.25841 8.18341 7.50008 8.42508L10.0001 10.9251L12.5001 8.42508C12.7417 8.18341 13.1417 8.18341 13.3834 8.42508C13.6251 8.66675 13.6251 9.05841 13.3834 9.30841Z" fill="#45B22B"/>
</svg>
