<svg width="20" height="21" viewBox="0 0 20 21" fill="none" xmlns="http://www.w3.org/2000/svg">
<path d="M12.5002 19.4583H7.50016C6.40016 19.4583 5.4835 19.35 4.7085 19.1166C4.42516 19.0333 4.24183 18.7583 4.2585 18.4666C4.46683 15.975 6.99183 14.0166 10.0002 14.0166C13.0085 14.0166 15.5252 15.9666 15.7418 18.4666C15.7668 18.7666 15.5835 19.0333 15.2918 19.1166C14.5168 19.35 13.6002 19.4583 12.5002 19.4583ZM5.60016 18.05C6.15016 18.1583 6.77516 18.2083 7.50016 18.2083H12.5002C13.2252 18.2083 13.8502 18.1583 14.4002 18.05C13.9585 16.45 12.1335 15.2666 10.0002 15.2666C7.86683 15.2666 6.04183 16.45 5.60016 18.05Z" fill="#292D32"/>
<path d="M12.5 2.16675H7.49996C3.33329 2.16675 1.66663 3.83341 1.66663 8.00008V13.0001C1.66663 16.1501 2.61663 17.8751 4.88329 18.5167C5.06663 16.3501 7.29163 14.6417 9.99996 14.6417C12.7083 14.6417 14.9333 16.3501 15.1166 18.5167C17.3833 17.8751 18.3333 16.1501 18.3333 13.0001V8.00008C18.3333 3.83341 16.6666 2.16675 12.5 2.16675ZM9.99996 12.3084C8.34996 12.3084 7.01662 10.9668 7.01662 9.31676C7.01662 7.66676 8.34996 6.33341 9.99996 6.33341C11.65 6.33341 12.9833 7.66676 12.9833 9.31676C12.9833 10.9668 11.65 12.3084 9.99996 12.3084Z" stroke="#292D32" stroke-width="1.5" stroke-linecap="round" stroke-linejoin="round"/>
<path d="M9.99994 12.9332C8.00827 12.9332 6.3916 11.3083 6.3916 9.3166C6.3916 7.32493 8.00827 5.70825 9.99994 5.70825C11.9916 5.70825 13.6083 7.32493 13.6083 9.3166C13.6083 11.3083 11.9916 12.9332 9.99994 12.9332ZM9.99994 6.95825C8.69994 6.95825 7.6416 8.0166 7.6416 9.3166C7.6416 10.6249 8.69994 11.6832 9.99994 11.6832C11.2999 11.6832 12.3583 10.6249 12.3583 9.3166C12.3583 8.0166 11.2999 6.95825 9.99994 6.95825Z" fill="#292D32"/>
</svg>
