<svg width="18" height="18" viewBox="0 0 18 18" fill="none" xmlns="http://www.w3.org/2000/svg">
<path d="M8.20499 16.9875C7.84499 16.9875 7.49249 16.8975 7.16249 16.7175C6.50249 16.35 6.10499 15.6825 6.10499 14.9325V10.9575C6.10499 10.5825 5.85749 10.02 5.62499 9.73495L2.81999 6.76495C2.34749 6.29245 1.98749 5.48245 1.98749 4.87495V3.14995C1.98749 1.94995 2.89499 1.01245 4.04999 1.01245H13.95C15.09 1.01245 16.0125 1.93495 16.0125 3.07495V4.72495C16.0125 5.51245 15.54 6.40495 15.0975 6.84745L11.85 9.71995C11.535 9.98245 11.2875 10.56 11.2875 11.025V14.25C11.2875 14.9175 10.8675 15.69 10.3425 16.005L9.30749 16.6725C8.96999 16.8825 8.58749 16.9875 8.20499 16.9875ZM4.04999 2.13745C3.52499 2.13745 3.11249 2.57995 3.11249 3.14995V4.87495C3.11249 5.15245 3.33749 5.69245 3.62249 5.97745L6.47999 8.98495C6.86249 9.45745 7.23749 10.245 7.23749 10.95V14.925C7.23749 15.4125 7.57499 15.6525 7.71749 15.7275C8.03249 15.9 8.41499 15.9 8.70749 15.7199L9.74999 15.0525C9.95999 14.925 10.17 14.52 10.17 14.25V11.025C10.17 10.2225 10.56 9.33745 11.1225 8.86495L14.3325 6.02245C14.5875 5.76745 14.895 5.15995 14.895 4.71745V3.07495C14.895 2.55745 14.475 2.13745 13.9575 2.13745H4.04999Z" fill="#292D32"/>
<path d="M4.5 8.06245C4.395 8.06245 4.2975 8.03245 4.2 7.97995C3.9375 7.81495 3.855 7.46245 4.02 7.19995L7.7175 1.27495C7.8825 1.01245 8.2275 0.929953 8.49 1.09495C8.7525 1.25995 8.835 1.60495 8.67 1.86745L4.9725 7.79245C4.8675 7.96495 4.6875 8.06245 4.5 8.06245Z" fill="#292D32"/>
</svg>
