<svg width="18" height="19" viewBox="0 0 18 19" fill="none" xmlns="http://www.w3.org/2000/svg">
<path d="M8.19736 17.5626C7.83736 17.5626 7.47738 17.4727 7.14738 17.2927C6.47988 16.9177 6.08235 16.2501 6.08235 15.4926V11.4802C6.08235 11.0977 5.83484 10.5351 5.60234 10.2426L2.75235 7.25014C2.27985 6.77765 1.91235 5.95264 1.91235 5.34514V3.60516C1.91235 2.39766 2.82737 1.45264 3.98987 1.45264H13.9948C15.1423 1.45264 16.0724 2.38265 16.0724 3.53015V5.19515C16.0724 5.98265 15.5999 6.89013 15.1499 7.33263C14.9324 7.55013 14.5724 7.55013 14.3549 7.33263C14.1374 7.11513 14.1374 6.75514 14.3549 6.53764C14.6324 6.26014 14.9474 5.63765 14.9474 5.19515V3.53015C14.9474 3.00515 14.5198 2.57764 13.9948 2.57764H3.98987C3.45737 2.57764 3.03735 3.02766 3.03735 3.60516V5.34514C3.03735 5.62264 3.26236 6.17015 3.55486 6.46265L6.44238 9.50014C6.82488 9.97264 7.19984 10.7677 7.19984 11.4802V15.4926C7.19984 15.9876 7.53736 16.2276 7.68736 16.3101C8.00986 16.4901 8.39238 16.4827 8.69238 16.3027L9.74236 15.6277C9.95986 15.5002 10.1699 15.0876 10.1699 14.8101C10.1699 14.5026 10.4249 14.2476 10.7324 14.2476C11.0399 14.2476 11.2949 14.5026 11.2949 14.8101C11.2949 15.4851 10.8748 16.2576 10.3423 16.5801L9.29988 17.2551C8.96238 17.4576 8.57986 17.5626 8.19736 17.5626Z" fill="#292D32"/>
<path d="M12.0526 13.4526C10.4176 13.4526 9.09009 12.1251 9.09009 10.4901C9.09009 8.8551 10.4176 7.52759 12.0526 7.52759C13.6876 7.52759 15.0151 8.8551 15.0151 10.4901C15.0151 12.1251 13.6876 13.4526 12.0526 13.4526ZM12.0526 8.65259C11.0401 8.65259 10.2151 9.4776 10.2151 10.4901C10.2151 11.5026 11.0401 12.3276 12.0526 12.3276C13.0651 12.3276 13.8901 11.5026 13.8901 10.4901C13.8901 9.4776 13.0651 8.65259 12.0526 8.65259Z" fill="#292D32"/>
<path d="M14.9024 13.9024C14.7599 13.9024 14.6174 13.8499 14.5049 13.7374L13.7549 12.9874C13.5374 12.7699 13.5374 12.4099 13.7549 12.1924C13.9724 11.9749 14.3324 11.9749 14.5499 12.1924L15.2999 12.9424C15.5174 13.1599 15.5174 13.5199 15.2999 13.7374C15.1949 13.8424 15.0449 13.9024 14.9024 13.9024Z" fill="#292D32"/>
</svg>
