<svg width="24" height="24" viewBox="0 0 24 24" fill="none" xmlns="http://www.w3.org/2000/svg">
<path d="M11.9999 15.9041C12.8251 15.9041 13.4941 15.2351 13.4941 14.4099C13.4941 13.5847 12.8251 12.9158 11.9999 12.9158C11.1747 12.9158 10.5057 13.5847 10.5057 14.4099C10.5057 15.2351 11.1747 15.9041 11.9999 15.9041Z" fill="#94A3B8"/>
<path d="M17.7567 8.73575V7.58992C17.7567 5.11492 17.1609 1.83325 12 1.83325C6.83921 1.83325 6.24337 5.11492 6.24337 7.58992V8.73575C3.67671 9.05659 2.83337 10.3583 2.83337 13.5574V15.2624C2.83337 19.0208 3.97921 20.1666 7.73754 20.1666H16.2625C20.0209 20.1666 21.1667 19.0208 21.1667 15.2624V13.5574C21.1667 10.3583 20.3234 9.05659 17.7567 8.73575ZM12 17.1783C10.4692 17.1783 9.23171 15.9316 9.23171 14.4099C9.23171 12.8791 10.4784 11.6416 12 11.6416C13.5217 11.6416 14.7684 12.8883 14.7684 14.4099C14.7684 15.9408 13.5309 17.1783 12 17.1783ZM7.73754 8.65325C7.66421 8.65325 7.60004 8.65325 7.52671 8.65325V7.58992C7.52671 4.90409 8.28754 3.11659 12 3.11659C15.7125 3.11659 16.4734 4.90409 16.4734 7.58992V8.66242C16.4 8.66242 16.3359 8.66242 16.2625 8.66242H7.73754V8.65325Z" fill="#94A3B8"/>
</svg>
