<svg width="16" height="16" viewBox="0 0 16 16" fill="none" xmlns="http://www.w3.org/2000/svg">
<path d="M3.82665 10.6668C3.89999 10.3402 3.76665 9.8735 3.53332 9.64016L1.91332 8.02016C1.40665 7.5135 1.20665 6.9735 1.35332 6.50683C1.50665 6.04016 1.97999 5.72016 2.68665 5.60016L4.76665 5.2535C5.06665 5.20016 5.43332 4.9335 5.57332 4.66016L6.71999 2.36016C7.05332 1.70016 7.50665 1.3335 7.99999 1.3335C8.49332 1.3335 8.94665 1.70016 9.27999 2.36016L10.4267 4.66016C10.5133 4.8335 10.6933 5.00016 10.8867 5.1135L3.70665 12.2935C3.61332 12.3868 3.45332 12.3002 3.47999 12.1668L3.82665 10.6668Z" fill="#FFC700"/>
<path d="M12.4667 9.63977C12.2267 9.87977 12.0934 10.3398 12.1734 10.6664L12.6334 12.6731C12.8267 13.5064 12.7067 14.1331 12.2934 14.4331C12.1267 14.5531 11.9267 14.6131 11.6934 14.6131C11.3534 14.6131 10.9534 14.4864 10.5134 14.2264L8.56003 13.0664C8.25337 12.8864 7.7467 12.8864 7.44003 13.0664L5.4867 14.2264C4.7467 14.6598 4.11337 14.7331 3.7067 14.4331C3.55337 14.3198 3.44003 14.1664 3.3667 13.9664L11.4734 5.85977C11.78 5.5531 12.2134 5.4131 12.6334 5.48644L13.3067 5.59977C14.0134 5.71977 14.4867 6.03977 14.64 6.50644C14.7867 6.9731 14.5867 7.5131 14.08 8.01977L12.4667 9.63977Z" fill="#FFC700"/>
</svg>
