<svg width="14" height="14" viewBox="0 0 14 14" fill="none" xmlns="http://www.w3.org/2000/svg">
<path d="M7.00004 7.43758C5.15087 7.43758 3.64587 5.93258 3.64587 4.08342C3.64587 2.23425 5.15087 0.729248 7.00004 0.729248C8.84921 0.729248 10.3542 2.23425 10.3542 4.08342C10.3542 5.93258 8.84921 7.43758 7.00004 7.43758ZM7.00004 1.60425C5.63504 1.60425 4.52087 2.71842 4.52087 4.08342C4.52087 5.44842 5.63504 6.56258 7.00004 6.56258C8.36504 6.56258 9.47921 5.44842 9.47921 4.08342C9.47921 2.71842 8.36504 1.60425 7.00004 1.60425Z" fill="#45B22B"/>
<path d="M9.22841 13.2707C9.00674 13.2707 8.79674 13.189 8.64507 13.0374C8.46424 12.8565 8.38257 12.5941 8.4234 12.3199L8.53424 11.5324C8.56341 11.3282 8.68591 11.0891 8.83175 10.9374L10.8967 8.8724C11.7251 8.04407 12.4542 8.51657 12.8101 8.8724C13.1134 9.17573 13.2709 9.50237 13.2709 9.82904C13.2709 10.1615 13.1192 10.4707 12.8101 10.7799L10.7451 12.8449C10.5992 12.9907 10.3543 13.1132 10.1501 13.1424L9.36256 13.2532C9.3159 13.2649 9.27507 13.2707 9.22841 13.2707ZM11.8476 9.28654C11.7426 9.28654 11.6492 9.35657 11.5151 9.49073L9.45008 11.5557C9.43258 11.5732 9.4034 11.6315 9.4034 11.6549L9.2984 12.384L10.0276 12.279C10.0509 12.2732 10.1092 12.2441 10.1267 12.2266L12.1918 10.1615C12.2851 10.0682 12.3959 9.93404 12.3959 9.82904C12.3959 9.74154 12.3259 9.61907 12.1918 9.49073C12.0518 9.35073 11.9467 9.28654 11.8476 9.28654Z" fill="#45B22B"/>
<path d="M12.2034 11.2117C12.1626 11.2117 12.1218 11.2059 12.0868 11.1942C11.3168 10.9784 10.7043 10.3659 10.4884 9.59589C10.4243 9.36256 10.5584 9.1234 10.7918 9.05923C11.0251 8.99507 11.2643 9.12921 11.3284 9.36254C11.4626 9.84087 11.8418 10.22 12.3201 10.3542C12.5534 10.4184 12.6876 10.6634 12.6234 10.8909C12.5709 11.0834 12.3959 11.2117 12.2034 11.2117Z" fill="#45B22B"/>
<path d="M1.98926 13.2708C1.75009 13.2708 1.55176 13.0725 1.55176 12.8333C1.55176 10.3425 3.99594 8.3125 7.00011 8.3125C7.63594 8.3125 8.26594 8.40585 8.8551 8.58085C9.08844 8.65085 9.21677 8.89584 9.14677 9.12334C9.07677 9.35668 8.83177 9.48501 8.60427 9.41501C8.09094 9.26334 7.55427 9.18166 7.00011 9.18166C4.48011 9.18166 2.42676 10.815 2.42676 12.8275C2.42676 13.0725 2.22842 13.2708 1.98926 13.2708Z" fill="#45B22B"/>
</svg>
