<?xml version="1.0" encoding="utf-8"?>
<svg xmlns="http://www.w3.org/2000/svg" viewBox="0 0 80 80" width="320" height="320">
  <path fill="#8bb7f0" d="M20,64.5c-6.3,0-11.5-5.2-11.5-11.5V24.5H76c0.8,0,1.5,0.7,1.5,1.5v17c0,4.1-3.4,7.5-7.5,7.5h-2.5 V53c0,6.3-5.2,11.5-11.5,11.5H20z M67.5,47.5H70c2.5,0,4.5-2,4.5-4.5V27.5h-7V47.5z" />
  <path fill="#4e7ab5" d="M76,25c0.6,0,1,0.4,1,1v17c0,3.9-3.1,7-7,7h-2h-1v1v2c0,6.1-4.9,11-11,11H20c-6.1,0-11-4.9-11-11 V25H76 M67,48h1h2c2.8,0,5-2.2,5-5V28v-1h-1h-6h-1v1v19V48 M76,24H8v29c0,6.6,5.4,12,12,12h36c6.6,0,12-5.4,12-12v-2h2 c4.4,0,8-3.6,8-8V26C78,24.9,77.1,24,76,24L76,24z M68,47V28h6v15c0,2.2-1.8,4-4,4H68L68,47z" />
  <path fill="#f78f8f" d="M26 6H28V20H26zM34 10H36V20H34zM42 6H44V20H42zM50 10H52V20H50z" />
  <g>
    <path fill="#8bb7f0" d="M10,73.5c-4.1,0-7.5-3.4-7.5-7.5v-1.5h71V66c0,4.1-3.4,7.5-7.5,7.5H10z" />
    <path fill="#4e7ab5" d="M73,65v1c0,3.9-3.1,7-7,7H10c-3.9,0-7-3.1-7-7v-1H73 M74,64H2v2c0,4.4,3.6,8,8,8h56 c4.4,0,8-3.6,8-8V64L74,64z" />
  </g>
</svg>